<?xml version="1.0" encoding="utf-8"?>
<!-- Generator: Adobe Illustrator 26.0.0, SVG Export Plug-In . SVG Version: 6.00 Build 0)  -->
<svg version="1.1" id="Capa_1" xmlns="http://www.w3.org/2000/svg" xmlns:xlink="http://www.w3.org/1999/xlink" x="0px" y="0px"
	 viewBox="0 0 959.89 150" style="enable-background:new 0 0 959.89 150;" xml:space="preserve">
<style type="text/css">
	.st0{fill:#F4F4F4;}
</style>
<g>
	<path class="st0" d="M87.34,89.28c-45.26,0-63.36,13.23-63.36,13.23s2.32,35.97,28.55,35.97s34.81-9.52,34.81-9.52
		s6.6,9.52,32.96,9.52c26.92,0,29.71-35.97,29.71-35.97S132.6,89.28,87.34,89.28z M53.67,124.42c-5.57,0-11.43-8-10.86-15.71
		c0.57-7.71,38.83-10.85,38.97-2.86C82.03,120.43,59.24,124.42,53.67,124.42z M121.01,124.42c-5.57,0-28.36-4-28.1-18.56
		c0.14-8,38.39-4.86,38.97,2.86C132.44,116.43,126.58,124.42,121.01,124.42z"/>
	<path class="st0" d="M22.22,92.08c0,0-7.09-23.38,4.11-44.45S57.6,18.66,69.46,15.04c0,0-2.63,6.91-1.98,13.17
		c0,0,12.52-10.21,25.02-13.17s32.92,2.19,32.92,2.19s-19.26,8.67-21.98,17.89c0,0,15.39-9.55,36.46,1.32c0,0-15.8,0-21.4,8.23
		c0,0,25.02-0.33,30.95,19.1s0,29.96,0,29.96s-3.29-31.61-39.84-32.27c0,0-1.98,10.21,5.27,15.8c0,0-30.29,0-41.81-13.83
		c0,0-2.3,6.91,3.29,13.5c0,0-20.74,2.3-33.91-11.85C42.46,65.09,26.01,73.65,22.22,92.08z"/>
</g>
<g>
	<path class="st0" d="M172.01,99.37l8.02-9.87c3.55,4.7,10.48,7.94,17.5,7.94c4.24,0,5.94-2.16,5.94-3.93
		c0-5.7-24.82-4.62-24.82-19.89c0-8.71,7.4-17.58,21.04-17.58c8.33,0,16.34,3.01,21.51,8.4l-8.09,9.64
		c-4.01-4.39-10.41-6.48-15.49-6.48c-3.01,0-5.01,1.54-5.01,3.55c0,5.32,24.9,4.7,24.9,19.66c0,10.02-8.02,18.35-21.04,18.35
		C185.96,109.16,176.71,105.23,172.01,99.37z"/>
	<path class="st0" d="M224.04,90.81c0-0.85,0.23-2.62,0.39-3.39l6.78-30.6h13.49l-6.71,30.3c-0.08,0.39-0.23,1.23-0.23,2.16
		c0.08,4.24,3.31,8.33,9.87,8.33c7.09,0,10.71-4.47,12.03-10.48l6.71-30.3h13.41l-6.71,30.53c-2.78,12.49-9.56,21.82-25.44,21.82
		C231.82,109.16,224.04,101.61,224.04,90.81z"/>
	<path class="st0" d="M277.69,108.24l11.33-51.42h25.36c8.4,0,14.65,6.63,14.65,14.72c0,7.55-5.01,19.43-21.97,19.43h-12.33
		l-3.78,17.27H277.69z M307.75,79.41c4.24,0,7.55-2.62,7.55-6.4c0-2.85-2.16-4.62-5.32-4.62h-10.25l-2.39,11.02h10.33H307.75z"/>
	<path class="st0" d="M327.25,108.24l11.33-51.42h37.7l-2.54,11.56H349.3l-1.7,8.02h23.82l-2.54,11.56h-23.9l-1.93,8.71h24.44
		l-2.54,11.56H327.25z"/>
	<path class="st0" d="M401.86,108.24l-4.78-17.27h-7.4l-3.78,17.27h-13.26l11.33-51.42h23.43c8.87,0,16.65,5.78,16.65,15.03
		c0,9.17-6.17,16.19-13.72,18.19l6.17,18.19H401.86z M402.79,79.41c4.55,0,7.48-2.39,7.48-6.17c0-2.85-2.54-4.86-5.4-4.86H394.7
		l-2.39,11.02h10.41H402.79z"/>
	<path class="st0" d="M458.21,108.24l4.55-20.66h-21.35l-4.55,20.66H423.6l11.33-51.42h13.26l-4.24,19.19h21.35l4.24-19.19h13.26
		l-11.33,51.42H458.21z"/>
	<path class="st0" d="M480.72,108.24l11.33-51.42h37.7l-2.54,11.56h-24.44l-1.7,8.02h23.82l-2.54,11.56h-23.9l-1.93,8.71h24.44
		l-2.54,11.56H480.72z"/>
	<path class="st0" d="M555.33,108.24l-4.78-17.27h-7.4l-3.78,17.27h-13.26l11.33-51.42h23.43c8.87,0,16.65,5.78,16.65,15.03
		c0,9.17-6.17,16.19-13.72,18.19l6.17,18.19H555.33z M556.26,79.41c4.55,0,7.48-2.39,7.48-6.17c0-2.85-2.54-4.86-5.4-4.86h-10.17
		l-2.39,11.02h10.41H556.26z"/>
	<path class="st0" d="M579.38,85.8c0-16.57,13.03-29.83,30.45-29.83c14.65,0,25.98,9.25,25.98,23.2c0,16.57-12.95,29.99-30.37,29.99
		C590.71,109.16,579.38,99.91,579.38,85.8z M622.01,80.18c0-7.48-5.4-12.49-13.03-12.49c-9.02,0-15.8,7.79-15.8,17.27
		c0,7.48,5.4,12.49,13.03,12.49C615.22,97.44,622.01,89.66,622.01,80.18z"/>
	<path class="st0" d="M640.27,104.77c0-2.31,1.93-4.24,4.24-4.24s4.24,1.93,4.24,4.24s-1.93,4.24-4.24,4.24
		S640.27,107.08,640.27,104.77z"/>
	<path class="st0" d="M657.54,100.99l2-1.77c3.16,3.85,8.56,7.63,15.96,7.63c11.87,0,14.88-6.78,14.88-11.64
		c0-16.96-31.22-8.56-31.22-26.13c0-8.33,7.63-13.1,16.11-13.1c7.55,0,13.03,2.77,16.65,7.25l-1.93,1.77
		c-3.62-4.7-8.79-6.71-14.72-6.71c-7.48,0-13.41,4.47-13.41,10.79c0,14.65,31.22,6.94,31.22,26.13c0,5.78-3.7,13.95-17.58,13.95
		C667.48,109.16,661.24,105.69,657.54,100.99z"/>
	<path class="st0" d="M704.56,108.24V56.82h31.45v2.31h-28.98v21.51h28.44v2.31h-28.44v22.97h28.98v2.31H704.56z"/>
	<path class="st0" d="M785.34,108.24l-5.7-13.8h-28.68l-5.71,13.8h-2.85l21.43-51.42h2.93l21.43,51.42H785.34z M765.3,59.67
		l-13.41,32.45h26.83L765.3,59.67z"/>
	<path class="st0" d="M827.04,108.24l-15.65-22.2h-12.33v22.2h-2.47V56.82h17.73c8.33,0,15.19,5.17,15.19,14.57
		c0,9.4-6.86,14.65-15.19,14.65l15.88,22.2H827.04z M826.81,71.39c0-7.09-4.93-12.26-12.49-12.26h-15.26v24.59h15.26
		C821.88,83.72,826.81,78.48,826.81,71.39z"/>
	<path class="st0" d="M839.45,82.57c0-15.8,11.41-26.6,25.67-26.6c7.25,0,13.34,2.85,17.88,8.09l-1.93,1.7
		c-3.62-4.55-9.56-7.48-15.96-7.48c-12.87,0-22.97,9.79-22.97,24.28c0,14.34,10.1,24.28,22.97,24.28c6.4,0,12.33-2.93,15.96-7.48
		l2,1.62c-4.86,5.47-10.72,8.17-17.96,8.17C850.86,109.16,839.45,98.37,839.45,82.57z"/>
	<path class="st0" d="M930.17,108.24V82.95H895.1v25.29h-2.47V56.82h2.47v23.82h35.07V56.82h2.47v51.42H930.17z"/>
</g>
</svg>
